<?xml version='1.0' encoding='UTF-8'?>
<svg xmlns="http://www.w3.org/2000/svg" width="561.12" height="118.44" viewBox="115.44 246.78 561.12 118.44" version="1.2">
<g id="surface1">
<path style=" stroke:none;fill-rule:nonzero;fill:rgb(10.980225%,45.881653%,73.725891%);fill-opacity:1;" d="M 258.738281 287.792969 L 258.738281 302.359375 L 261.652344 302.359375 C 263.300781 302.359375 264.515625 301.933594 265.292969 301.085938 C 266.070312 300.234375 266.457031 298.863281 266.457031 296.96875 L 266.457031 293.039062 C 266.457031 289.542969 265.097656 287.792969 262.378906 287.792969 Z M 258.738281 331.488281 L 250.730469 331.488281 L 250.730469 280.511719 L 262.597656 280.511719 C 266.675781 280.511719 269.671875 281.472656 271.59375 283.390625 C 273.507812 285.304688 274.46875 288.257812 274.46875 292.238281 L 274.46875 295.367188 C 274.46875 300.707031 272.71875 304.058594 269.226562 305.417969 L 269.226562 305.5625 C 272.769531 306.632812 274.542969 310.222656 274.542969 316.339844 L 274.542969 325.296875 C 274.542969 328.066406 274.832031 330.128906 275.417969 331.488281 L 267.257812 331.488281 C 266.773438 330.082031 266.53125 327.992188 266.53125 325.226562 L 266.53125 315.902344 C 266.53125 313.574219 266.15625 311.945312 265.402344 311.023438 C 264.648438 310.101562 263.351562 309.640625 261.507812 309.640625 L 258.738281 309.640625 Z M 258.738281 331.488281 " />
<path style=" stroke:none;fill-rule:nonzero;fill:rgb(10.980225%,45.881653%,73.725891%);fill-opacity:1;" d="M 288.085938 331.488281 L 280.074219 331.488281 L 280.074219 280.511719 L 288.085938 280.511719 Z M 288.085938 331.488281 " />
<path style=" stroke:none;fill-rule:nonzero;fill:rgb(10.980225%,45.881653%,73.725891%);fill-opacity:1;" d="M 304.472656 332.214844 C 300.585938 332.214844 297.648438 331.113281 295.660156 328.902344 C 293.667969 326.695312 292.675781 323.527344 292.675781 319.398438 L 292.675781 316.488281 L 300.25 316.488281 L 300.25 319.980469 C 300.25 323.28125 301.632812 324.933594 304.398438 324.933594 C 307.214844 324.933594 308.625 323.234375 308.625 319.835938 C 308.625 317.75 308.113281 315.902344 307.09375 314.300781 C 306.121094 312.699219 304.300781 310.734375 301.632812 308.402344 C 298.328125 305.441406 296 302.796875 294.640625 300.464844 C 293.328125 298.039062 292.675781 295.367188 292.675781 292.453125 C 292.675781 288.375 293.695312 285.246094 295.730469 283.0625 C 297.769531 280.875 300.730469 279.785156 304.617188 279.785156 C 308.402344 279.785156 311.292969 280.890625 313.28125 283.097656 C 315.273438 285.308594 316.269531 288.476562 316.269531 292.601562 L 316.269531 294.714844 L 308.695312 294.714844 L 308.695312 292.089844 C 308.695312 288.742188 307.359375 287.066406 304.6875 287.066406 C 301.972656 287.066406 300.609375 288.695312 300.609375 291.945312 C 300.609375 293.839844 301.121094 295.539062 302.140625 297.042969 C 303.207031 298.695312 305.054688 300.636719 307.675781 302.867188 C 311.023438 305.78125 313.332031 308.453125 314.59375 310.878906 C 315.902344 313.257812 316.558594 316.050781 316.558594 319.253906 C 316.558594 323.429688 315.527344 326.632812 313.464844 328.867188 C 311.398438 331.101562 308.402344 332.214844 304.472656 332.214844 " />
<path style=" stroke:none;fill-rule:nonzero;fill:rgb(10.980225%,45.881653%,73.725891%);fill-opacity:1;" d="M 347.433594 331.488281 L 339.0625 331.488281 L 332.359375 309.058594 L 329.082031 315.464844 L 329.082031 331.488281 L 321.070312 331.488281 L 321.070312 280.511719 L 329.082031 280.511719 L 329.082031 302.429688 L 339.132812 280.511719 L 347.289062 280.511719 L 337.75 299.226562 Z M 347.433594 331.488281 " />
<path style=" stroke:none;fill-rule:nonzero;fill:rgb(10.980225%,45.881653%,73.725891%);fill-opacity:1;" d="M 369.863281 331.488281 L 362.871094 331.488281 L 362.871094 280.511719 L 374.15625 280.511719 L 379.472656 317.507812 L 384.789062 280.511719 L 396.078125 280.511719 L 396.078125 331.488281 L 388.503906 331.488281 L 388.503906 292.890625 L 382.53125 331.488281 L 375.832031 331.488281 L 369.863281 292.890625 Z M 369.863281 331.488281 " />
<path style=" stroke:none;fill-rule:nonzero;fill:rgb(10.980225%,45.881653%,73.725891%);fill-opacity:1;" d="M 413.261719 288.886719 L 409.695312 314.59375 L 416.90625 314.59375 Z M 427.316406 331.488281 L 419.308594 331.488281 L 417.921875 321.511719 L 408.675781 321.511719 L 407.292969 331.488281 L 399.863281 331.488281 L 408.164062 280.511719 L 419.015625 280.511719 Z M 427.316406 331.488281 " />
<path style=" stroke:none;fill-rule:nonzero;fill:rgb(10.980225%,45.881653%,73.725891%);fill-opacity:1;" d="M 439.113281 287.792969 L 439.113281 302.359375 L 442.027344 302.359375 C 443.679688 302.359375 444.890625 301.933594 445.667969 301.085938 C 446.445312 300.234375 446.832031 298.863281 446.832031 296.96875 L 446.832031 293.039062 C 446.832031 289.542969 445.472656 287.792969 442.757812 287.792969 Z M 439.113281 331.488281 L 431.105469 331.488281 L 431.105469 280.511719 L 442.972656 280.511719 C 447.050781 280.511719 450.050781 281.472656 451.96875 283.390625 C 453.886719 285.304688 454.84375 288.257812 454.84375 292.238281 L 454.84375 295.367188 C 454.84375 300.707031 453.097656 304.058594 449.601562 305.417969 L 449.601562 305.5625 C 453.144531 306.632812 454.917969 310.222656 454.917969 316.339844 L 454.917969 325.296875 C 454.917969 328.066406 455.207031 330.128906 455.792969 331.488281 L 447.636719 331.488281 C 447.148438 330.082031 446.90625 327.992188 446.90625 325.226562 L 446.90625 315.902344 C 446.90625 313.574219 446.53125 311.945312 445.777344 311.023438 C 445.023438 310.101562 443.726562 309.640625 441.882812 309.640625 L 439.113281 309.640625 Z M 439.113281 331.488281 " />
<path style=" stroke:none;fill-rule:nonzero;fill:rgb(10.980225%,45.881653%,73.725891%);fill-opacity:1;" d="M 486.8125 331.488281 L 478.4375 331.488281 L 471.738281 309.058594 L 468.460938 315.464844 L 468.460938 331.488281 L 460.449219 331.488281 L 460.449219 280.511719 L 468.460938 280.511719 L 468.460938 302.429688 L 478.511719 280.511719 L 486.667969 280.511719 L 477.128906 299.226562 Z M 486.8125 331.488281 " />
<path style=" stroke:none;fill-rule:nonzero;fill:rgb(10.980225%,45.881653%,73.725891%);fill-opacity:1;" d="M 512.445312 331.488281 L 490.597656 331.488281 L 490.597656 280.511719 L 512.445312 280.511719 L 512.445312 287.792969 L 498.609375 287.792969 L 498.609375 301.265625 L 509.605469 301.265625 L 509.605469 308.546875 L 498.609375 308.546875 L 498.609375 324.207031 L 512.445312 324.207031 Z M 512.445312 331.488281 " />
<path style=" stroke:none;fill-rule:nonzero;fill:rgb(10.980225%,45.881653%,73.725891%);fill-opacity:1;" d="M 531.015625 331.488281 L 523.003906 331.488281 L 523.003906 287.792969 L 514.628906 287.792969 L 514.628906 280.511719 L 539.390625 280.511719 L 539.390625 287.792969 L 531.015625 287.792969 Z M 531.015625 331.488281 " />
<path style=" stroke:none;fill-rule:nonzero;fill:rgb(10.980225%,45.881653%,73.725891%);fill-opacity:1;" d="M 562.035156 331.488281 L 554.898438 331.488281 L 554.898438 280.511719 L 564.800781 280.511719 L 572.886719 311.023438 L 572.886719 280.511719 L 580.023438 280.511719 L 580.023438 331.488281 L 571.941406 331.488281 L 562.035156 294.277344 Z M 562.035156 331.488281 " />
<path style=" stroke:none;fill-rule:nonzero;fill:rgb(10.980225%,45.881653%,73.725891%);fill-opacity:1;" d="M 607.839844 331.488281 L 585.992188 331.488281 L 585.992188 280.511719 L 607.839844 280.511719 L 607.839844 287.792969 L 594.003906 287.792969 L 594.003906 301.265625 L 605 301.265625 L 605 308.546875 L 594.003906 308.546875 L 594.003906 324.207031 L 607.839844 324.207031 Z M 607.839844 331.488281 " />
<path style=" stroke:none;fill-rule:nonzero;fill:rgb(10.980225%,45.881653%,73.725891%);fill-opacity:1;" d="M 626.410156 331.488281 L 615.777344 331.488281 L 610.605469 280.511719 L 618.324219 280.511719 L 621.964844 320.417969 L 625.824219 280.511719 L 634.5625 280.511719 L 638.421875 320.417969 L 642.066406 280.511719 L 648.984375 280.511719 L 643.8125 331.488281 L 633.835938 331.488281 L 630.121094 296.460938 Z M 626.410156 331.488281 " />
<path style=" stroke:none;fill-rule:nonzero;fill:rgb(10.980225%,45.881653%,73.725891%);fill-opacity:1;" d="M 663.472656 332.214844 C 659.589844 332.214844 656.652344 331.113281 654.664062 328.902344 C 652.671875 326.695312 651.675781 323.527344 651.675781 319.398438 L 651.675781 316.488281 L 659.25 316.488281 L 659.25 319.980469 C 659.25 323.28125 660.632812 324.933594 663.402344 324.933594 C 666.214844 324.933594 667.625 323.234375 667.625 319.835938 C 667.625 317.75 667.113281 315.902344 666.09375 314.300781 C 665.125 312.699219 663.304688 310.734375 660.632812 308.402344 C 657.332031 305.441406 655 302.796875 653.644531 300.464844 C 652.332031 298.039062 651.675781 295.367188 651.675781 292.453125 C 651.675781 288.375 652.695312 285.246094 654.734375 283.0625 C 656.773438 280.875 659.734375 279.785156 663.617188 279.785156 C 667.40625 279.785156 670.292969 280.890625 672.285156 283.097656 C 674.277344 285.308594 675.269531 288.476562 675.269531 292.601562 L 675.269531 294.714844 L 667.695312 294.714844 L 667.695312 292.089844 C 667.695312 288.742188 666.363281 287.066406 663.691406 287.066406 C 660.972656 287.066406 659.613281 288.695312 659.613281 291.945312 C 659.613281 293.839844 660.125 295.539062 661.144531 297.042969 C 662.210938 298.695312 664.058594 300.636719 666.679688 302.867188 C 670.027344 305.78125 672.332031 308.453125 673.597656 310.878906 C 674.90625 313.257812 675.5625 316.050781 675.5625 319.253906 C 675.5625 323.429688 674.53125 326.632812 672.464844 328.867188 C 670.402344 331.101562 667.40625 332.214844 663.472656 332.214844 " />
<path style=" stroke:none;fill-rule:nonzero;fill:rgb(10.980225%,45.881653%,73.725891%);fill-opacity:1;" d="M 190.703125 306.09375 C 190.761719 314.847656 183.570312 322.058594 174.765625 322.085938 C 165.933594 322.113281 158.691406 315 158.644531 306.253906 C 158.601562 297.277344 165.714844 290.035156 174.597656 290.015625 C 183.535156 289.992188 190.648438 297.09375 190.703125 306.09375 M 146.804688 306.40625 C 146.878906 321.609375 159.476562 333.980469 174.832031 333.933594 C 190.140625 333.886719 202.644531 321.34375 202.542969 306.121094 C 202.445312 290.480469 190.074219 278.128906 174.542969 278.167969 C 159.09375 278.207031 146.730469 290.792969 146.804688 306.40625 " />
<path style=" stroke:none;fill-rule:nonzero;fill:rgb(10.980225%,45.881653%,73.725891%);fill-opacity:1;" d="M 129.316406 314.605469 C 126.664062 288.792969 134.695312 268.152344 156.003906 253.6875 C 159.648438 251.21875 163.761719 249.238281 168.035156 247.78125 L 123.402344 247.78125 C 119.558594 247.78125 116.4375 250.898438 116.4375 254.75 L 116.4375 293.980469 C 118.792969 301.753906 122.902344 308.558594 129.316406 314.605469 " />
<path style=" stroke:none;fill-rule:nonzero;fill:rgb(10.980225%,45.881653%,73.725891%);fill-opacity:1;" d="M 166.238281 260.617188 C 193.367188 258.035156 214.621094 266.863281 228.636719 290.144531 C 230.375 293.035156 231.78125 296.003906 232.875 299.042969 L 232.875 254.75 C 232.875 250.898438 229.753906 247.78125 225.90625 247.78125 L 186.703125 247.78125 C 178.902344 250.144531 172.15625 254.214844 166.238281 260.617188 " />
<path style=" stroke:none;fill-rule:nonzero;fill:rgb(10.980225%,45.881653%,73.725891%);fill-opacity:1;" d="M 183.054688 351.582031 C 181.675781 351.582031 180.792969 351.515625 179.925781 351.589844 C 156.351562 353.742188 137.277344 345.488281 123.417969 326.300781 C 120.367188 322.082031 118.058594 317.640625 116.4375 313.011719 L 116.4375 357.25 C 116.4375 361.101562 119.558594 364.21875 123.40625 364.21875 L 163.363281 364.21875 C 170.695312 361.785156 177.28125 357.800781 183.054688 351.582031 " />
<path style=" stroke:none;fill-rule:nonzero;fill:rgb(10.980225%,45.881653%,73.725891%);fill-opacity:1;" d="M 220.058594 298.210938 C 220.152344 299.480469 220.222656 300.753906 220.347656 302.023438 C 223.050781 330.074219 206.269531 355.652344 181.480469 364.21875 L 225.90625 364.21875 C 229.753906 364.21875 232.875 361.097656 232.875 357.25 L 232.875 317.601562 C 230.472656 310.199219 226.378906 303.675781 220.058594 298.210938 " />
</g>
</svg>